# xmcd
#
# Track frame offsets: 
#        150
#        18511
#        44420
#        66368
#        85659
#        104906
#        124438
#        143586
#        168605
#        185288
#        208794
#        229447
#        249174
#
# Disc length: 3577 seconds
#
# Revision: 1
# Processed by: cddbd v1.5.2PL0 Copyright (c) Steve Scherf et al.
# Submitted via: ExactAudioCopy v1.0b3
#
DISCID=bf0df70d
DTITLE=DJ Krush - Stepping Stones - Lyricism - The Self Remixed Best
DYEAR=2006
DGENRE=Instrumental
TTITLE0=DJ Krush feat. C.L. Smooth - Only The Strong Survive [Bon Mix]
TTITLE1=DJ Krush feat. TWIGY and RINO - 岐路 -Kiro- [Vib Mix]
TTITLE2=DJ Krush feat. Company Flow - Vision Of Art [Broken Mix]
TTITLE3=DJ Krush feat. Black Thought - Zen Approach [Cradle Mix]
TTITLE4=DJ Krush feat. Esthero - Final Home [Piano Mix]
TTITLE5=DJ Krush feat. Aesop Rock - Kill Switch [Beep Mix]
TTITLE6=DJ Krush feat. Mr. Lif - Nosferatu [Space-cadet Mix]
TTITLE7=DJ Krush feat. Anticon - Song For John Walker [Sticky Mix]
TTITLE8=DJ Krush feat. Black Thought and Malik B - Meiso [Silent-gun Mix
TTITLE8=]
TTITLE9=DJ Krush feat. Zap Mama - Danger Of Love [Gray-sky Mix]
TTITLE10=DJ Krush feat. Mos Def - Shinjiro [Harsh Mix]
TTITLE11=DJ Krush feat. KAN - 猛者 -Mosa-
TTITLE12=DJ Krush feat. KAN - 猛者 -Mosa- [Remix]
EXTD=YEAR: 2006
EXTT0=
EXTT1=
EXTT2=
EXTT3=
EXTT4=
EXTT5=
EXTT6=
EXTT7=
EXTT8=
EXTT9=
EXTT10=
EXTT11=
EXTT12=
PLAYORDER=
